<svg width="22" height="20" viewBox="0 0 22 20" fill="none" xmlns="http://www.w3.org/2000/svg">
<path d="M15.6263 18.2559C15.6262 17.9865 15.7059 17.7232 15.8554 17.4991C16.0049 17.2751 16.2175 17.1004 16.4663 16.9972C16.7151 16.894 16.9889 16.8669 17.2531 16.9193C17.5173 16.9718 17.7601 17.1014 17.9506 17.2918C18.1411 17.4822 18.2709 17.7248 18.3235 17.989C18.3761 18.2532 18.3492 18.527 18.2462 18.7759C18.1431 19.0247 17.9686 19.2375 17.7447 19.3871C17.5207 19.5368 17.2574 19.6167 16.988 19.6167C16.6271 19.6164 16.281 19.473 16.0258 19.2179C15.7705 18.9628 15.6268 18.6168 15.6263 18.2559ZM5.51383 18.2559C5.51383 17.9867 5.59364 17.7236 5.74317 17.4999C5.89269 17.2761 6.10522 17.1017 6.35388 16.9987C6.60253 16.8957 6.87614 16.8687 7.14011 16.9212C7.40408 16.9737 7.64655 17.1033 7.83686 17.2937C8.02717 17.484 8.15678 17.7264 8.20928 17.9904C8.26179 18.2544 8.23484 18.528 8.13184 18.7766C8.02885 19.0253 7.85443 19.2378 7.63065 19.3873C7.40687 19.5369 7.14377 19.6167 6.87463 19.6167C6.5138 19.6164 6.16781 19.473 5.91266 19.2179C5.65751 18.9627 5.51407 18.6167 5.51383 18.2559ZM7.02473 15.4696C6.47563 15.4668 5.9455 15.2684 5.52954 14.9099C5.11358 14.5515 4.83905 14.0564 4.75524 13.5138L4.73816 13.3664L3.91665 3.56932L2.55944 3.33923C2.39891 3.31115 2.25393 3.22601 2.1512 3.0995C2.04847 2.97299 1.99491 2.81362 2.00038 2.65074L2.00937 2.56086C2.03595 2.40379 2.11738 2.26124 2.23916 2.15855C2.36094 2.05586 2.51519 1.99968 2.67449 2H2.69876L2.78864 2.00899L4.65816 2.33256C4.78798 2.35526 4.90828 2.41557 5.00414 2.506C5.10001 2.59643 5.16722 2.71301 5.19745 2.84129L5.21363 2.94106L5.42485 5.45772H18.0981C18.3564 5.45649 18.6122 5.50908 18.8491 5.61214C19.0861 5.7152 19.2989 5.86648 19.4742 6.05633C19.6493 6.2455 19.7838 6.46854 19.8695 6.7117C19.9551 6.95486 19.99 7.21299 19.9721 7.47016L19.9577 7.60588L19.1047 13.5048C19.0276 14.0249 18.7749 14.5031 18.3886 14.8598C18.0022 15.2166 17.5055 15.4304 16.9809 15.466L16.8334 15.4705L7.02473 15.4696ZM6.08188 13.254C6.10045 13.4725 6.19416 13.6778 6.34706 13.8349C6.49995 13.9921 6.70259 14.0914 6.92047 14.116L7.02473 14.1214H16.8308C17.0401 14.1212 17.2436 14.0518 17.4093 13.9238C17.575 13.7958 17.6936 13.6165 17.7466 13.414L17.7673 13.3088L18.6212 7.41443C18.641 7.27516 18.6048 7.13371 18.5206 7.02102C18.4364 6.90834 18.311 6.83359 18.1718 6.81313L18.0927 6.80684H5.5399L6.08188 13.254Z" fill="black"/>
<path d="M11.7305 8.26904V12.669" stroke="black" stroke-width="0.9" stroke-miterlimit="10" stroke-linecap="round" stroke-linejoin="round"/>
<path d="M13.9315 10.4692H9.52734" stroke="black" stroke-width="0.9" stroke-miterlimit="10" stroke-linecap="round" stroke-linejoin="round"/>
</svg>
