<svg width="20" height="20" viewBox="0 0 20 20" fill="none" xmlns="http://www.w3.org/2000/svg">
<path d="M2.05544 18.97C1.45523 18.7728 0.932631 18.391 0.562141 17.8793C0.191651 17.3675 -0.0078125 16.7518 -0.0078125 16.12C-0.0078125 15.4882 0.191651 14.8726 0.562141 14.3608C0.932631 13.849 1.45523 13.4673 2.05544 13.27C3.9271 12.6283 5.90451 12.3516 7.88044 12.455H8.20444C10.104 12.3708 12.0015 12.6634 13.7874 13.316C14.3707 13.5182 14.8752 13.8994 15.229 14.4053C15.5827 14.9111 15.7677 15.5158 15.7574 16.133C15.7696 16.7329 15.5946 17.3217 15.2568 17.8176C14.919 18.3134 14.4351 18.6918 13.8724 18.9C12.1659 19.5512 10.3458 19.8525 8.52044 19.786L7.87744 19.791C5.90195 19.8961 3.92483 19.6173 2.05544 18.97ZM7.53944 13.957C3.53144 13.997 1.49944 14.722 1.49944 16.115C1.49944 16.831 2.04244 17.379 3.11244 17.745C4.66285 18.1715 6.26963 18.357 7.87644 18.295C12.1084 18.295 14.2534 17.569 14.2534 16.136C14.2534 15.42 13.7104 14.871 12.6404 14.506C11.0896 14.08 9.48256 13.8945 7.87544 13.956L7.53944 13.957ZM16.4594 10.781L16.4534 10.681V9.42403H15.1594C14.9696 9.42347 14.787 9.35093 14.6485 9.22104C14.5101 9.09116 14.426 8.91359 14.4133 8.72416C14.4006 8.53473 14.4603 8.34753 14.5802 8.20034C14.7001 8.05314 14.8714 7.9569 15.0594 7.93103L15.1594 7.92503H16.4534V6.66903C16.454 6.47918 16.5265 6.2966 16.6564 6.15813C16.7863 6.01966 16.9639 5.9356 17.1533 5.92291C17.3427 5.91023 17.5299 5.96985 17.6771 6.08976C17.8243 6.20967 17.9206 6.38095 17.9464 6.56903L17.9534 6.66903V7.92403H19.2534C19.4433 7.92459 19.6259 7.99713 19.7643 8.12702C19.9028 8.25691 19.9869 8.43447 19.9996 8.62391C20.0122 8.81334 19.9526 9.00053 19.8327 9.14772C19.7128 9.29492 19.5415 9.39116 19.3534 9.41703L19.2534 9.42303H17.9534V10.678C17.9512 10.867 17.8778 11.0481 17.7479 11.1853C17.618 11.3226 17.4412 11.4058 17.2526 11.4184C17.0641 11.431 16.8778 11.3721 16.7307 11.2534C16.5837 11.1347 16.4869 10.965 16.4594 10.778V10.781ZM4.11144 9.08303C3.36584 8.33926 2.85786 7.39086 2.6519 6.35805C2.44594 5.32525 2.55127 4.25454 2.95454 3.28167C3.3578 2.30879 4.04085 1.47756 4.91709 0.893332C5.79332 0.309108 6.8233 -0.00179637 7.87644 3.06731e-05C8.57547 -0.00234747 9.26807 0.133583 9.91436 0.399996C10.5606 0.666408 11.1478 1.05804 11.6421 1.55233C12.1364 2.04663 12.5281 2.63383 12.7945 3.28011C13.0609 3.92639 13.1968 4.61899 13.1944 5.31803C13.1934 6.36989 12.8808 7.39787 12.2961 8.27225C11.7114 9.14663 10.8808 9.82821 9.90909 10.231C8.9374 10.6338 7.86818 10.7397 6.83635 10.5354C5.80452 10.3311 4.85633 9.8257 4.11144 9.08303ZM5.17144 2.61403C4.5398 3.24043 4.1451 4.06659 4.05469 4.95156C3.96428 5.83652 4.18377 6.72543 4.67569 7.46661C5.16761 8.20779 5.90149 8.7553 6.75208 9.01572C7.60268 9.27613 8.51729 9.23331 9.33984 8.89456C10.1624 8.55581 10.8419 7.94213 11.2624 7.15823C11.6829 6.37433 11.8184 5.4688 11.6457 4.59615C11.473 3.72351 11.0028 2.93783 10.3154 2.37319C9.62804 1.80856 8.76601 1.49995 7.87644 1.50003C7.37432 1.49779 6.87673 1.59509 6.41244 1.7863C5.94815 1.97751 5.52636 2.25884 5.17144 2.61403Z" fill="black"/>
</svg>
