<svg width="26" height="27" viewBox="0 0 26 27" fill="none" xmlns="http://www.w3.org/2000/svg">
<path d="M18.5329 22.43C18.5327 22.1035 18.6284 21.7842 18.8081 21.5126C18.9878 21.241 19.2432 21.0293 19.5422 20.9042C19.8411 20.7791 20.1701 20.7462 20.4876 20.8098C20.805 20.8734 21.0967 21.0305 21.3256 21.2613C21.5545 21.4921 21.7104 21.7862 21.7737 22.1065C21.8369 22.4267 21.8045 22.7586 21.6807 23.0603C21.5569 23.362 21.3472 23.6199 21.0781 23.8013C20.809 23.9827 20.4927 24.0796 20.169 24.0796C19.7354 24.0793 19.3195 23.9054 19.0128 23.5962C18.7061 23.2869 18.5335 22.8675 18.5329 22.43ZM6.3822 22.43C6.3822 22.1037 6.47809 21.7848 6.65776 21.5135C6.83742 21.2422 7.09278 21.0308 7.39155 20.906C7.69032 20.7811 8.01908 20.7484 8.33625 20.8121C8.65342 20.8757 8.94476 21.0328 9.17343 21.2635C9.4021 21.4942 9.55783 21.7882 9.62091 22.1082C9.684 22.4282 9.65162 22.7598 9.52787 23.0613C9.40412 23.3627 9.19454 23.6203 8.92566 23.8016C8.65677 23.9828 8.34065 24.0796 8.01726 24.0796C7.58371 24.0793 7.16799 23.9054 6.86141 23.5961C6.55484 23.2868 6.38248 22.8674 6.3822 22.43ZM8.19762 19.0523C7.53785 19.049 6.90087 18.8084 6.40108 18.3739C5.90128 17.9394 5.57141 17.3393 5.47071 16.6814L5.45019 16.5028L4.4631 4.6265L2.83235 4.34757C2.63947 4.31353 2.46527 4.21033 2.34183 4.05697C2.2184 3.9036 2.15404 3.71041 2.16061 3.51297L2.17141 3.40401C2.20336 3.21361 2.30119 3.04081 2.44751 2.91632C2.59384 2.79184 2.77918 2.72373 2.97059 2.72412H2.99975L3.10774 2.73502L5.35407 3.12726C5.51005 3.15478 5.6546 3.22789 5.76978 3.33751C5.88497 3.44714 5.96573 3.58846 6.00205 3.74396L6.02149 3.8649L6.27528 6.91568H21.5028C21.8132 6.91418 22.1206 6.97793 22.4052 7.10286C22.6899 7.2278 22.9457 7.41118 23.1562 7.64133C23.3667 7.87064 23.5283 8.14101 23.6312 8.43578C23.7341 8.73055 23.7761 9.04346 23.7545 9.35521L23.7372 9.51974L22.7123 16.6705C22.6197 17.3011 22.316 17.8807 21.8518 18.3132C21.3876 18.7456 20.7908 19.0049 20.1604 19.048L19.9833 19.0534L8.19762 19.0523ZM7.06474 16.3666C7.08705 16.6314 7.19965 16.8803 7.38336 17.0708C7.56707 17.2613 7.81055 17.3817 8.07234 17.4115L8.19762 17.418H19.98C20.2316 17.4178 20.476 17.3336 20.6751 17.1785C20.8742 17.0233 21.0168 16.806 21.0805 16.5605L21.1054 16.433L22.1313 9.28766C22.1551 9.11882 22.1117 8.94735 22.0105 8.81075C21.9093 8.67416 21.7586 8.58355 21.5913 8.55874L21.4963 8.55111H6.41352L7.06474 16.3666Z" fill="white"/>
<path d="M14.0938 10.0244V15.3582" stroke="white" stroke-width="0.9" stroke-miterlimit="10" stroke-linecap="round" stroke-linejoin="round"/>
<path d="M16.741 12.6914H11.4492" stroke="white" stroke-width="0.9" stroke-miterlimit="10" stroke-linecap="round" stroke-linejoin="round"/>
</svg>
