<svg width="14" height="16" viewBox="0 0 14 16" fill="none" xmlns="http://www.w3.org/2000/svg">
<path d="M4.07551 15.4996C3.56581 15.5235 3.05644 15.4461 2.57688 15.2718C2.09732 15.0975 1.65712 14.8298 1.28176 14.4841C0.930802 14.1085 0.658715 13.6664 0.481587 13.1838C0.304458 12.7012 0.225884 12.1881 0.250509 11.6746V5.36336C0.226338 4.85706 0.305061 4.35111 0.481922 3.87609C0.658782 3.40106 0.930109 2.96683 1.27951 2.59961C1.93844 1.99301 2.79335 1.64328 3.68851 1.61411V1.02461C3.68668 0.892238 3.7355 0.76417 3.82499 0.66661C3.91447 0.56905 4.03786 0.509374 4.16989 0.499792C4.30193 0.490211 4.43264 0.531447 4.53527 0.615065C4.63791 0.698683 4.70471 0.818361 4.72201 0.94961L4.72651 1.02461V1.60286H9.28051V1.02461C9.2768 0.891025 9.32477 0.761157 9.41441 0.66205C9.50406 0.562943 9.62848 0.502237 9.76177 0.492571C9.89506 0.482906 10.0269 0.525026 10.1299 0.610162C10.233 0.695298 10.2992 0.816887 10.3148 0.94961L10.3193 1.02461V1.61636C11.228 1.64394 12.095 2.00393 12.756 2.62811C13.0957 2.99475 13.3587 3.4256 13.5294 3.89532C13.7002 4.36504 13.7754 4.86417 13.7505 5.36336V11.7301C13.7749 12.2371 13.6964 12.7438 13.5199 13.2197C13.3433 13.6955 13.0722 14.1308 12.723 14.4991C11.9596 15.1897 10.9537 15.5494 9.92551 15.4996H4.07551ZM1.28851 11.6746C1.24546 12.0505 1.28804 12.4313 1.41306 12.7884C1.53808 13.1455 1.7423 13.4697 2.01041 13.7366C2.27852 14.0036 2.60358 14.2064 2.96122 14.3299C3.31885 14.4533 3.6998 14.4943 4.07551 14.4496H9.92551C11.7203 14.4496 12.7095 13.4829 12.7095 11.7264V6.71186H1.28851V11.6746ZM12.7118 5.66561V5.36561C12.7364 5.00322 12.6878 4.63959 12.569 4.29634C12.4502 3.9531 12.2636 3.63726 12.0203 3.36761C11.5564 2.9363 10.9523 2.68724 10.3193 2.66636V3.32261C10.3218 3.45574 10.273 3.58474 10.183 3.68292C10.0931 3.78111 9.96886 3.84096 9.83602 3.85012C9.70318 3.85927 9.5719 3.81701 9.46935 3.73209C9.36679 3.64717 9.30079 3.52608 9.28501 3.39386L9.28051 3.32261V2.64761H4.72651V3.32261C4.7273 3.45462 4.67777 3.58196 4.58798 3.67873C4.4982 3.77551 4.37491 3.83443 4.24321 3.84351C4.11152 3.85259 3.98131 3.81114 3.8791 3.72761C3.77688 3.64407 3.71034 3.52473 3.69301 3.39386L3.68851 3.32261V2.66336C3.3477 2.66487 3.01103 2.73817 2.70043 2.87847C2.38984 3.01878 2.11229 3.22295 1.88586 3.47767C1.65944 3.7324 1.48922 4.03198 1.38629 4.35688C1.28337 4.68178 1.25005 5.02472 1.28851 5.36336V5.66336L12.7118 5.66561ZM9.55651 11.6251C9.55684 11.4991 9.60248 11.3774 9.68509 11.2823C9.76771 11.1871 9.88179 11.1249 10.0065 11.1069L10.0815 11.1024C10.2111 11.1073 10.3342 11.16 10.4272 11.2503C10.5202 11.3406 10.5765 11.4622 10.5853 11.5915C10.594 11.7209 10.5546 11.8489 10.4746 11.9509C10.3946 12.0529 10.2797 12.1218 10.152 12.1441L10.0815 12.1486C9.94253 12.1486 9.80922 12.0935 9.71081 11.9954C9.61239 11.8972 9.55691 11.7641 9.55651 11.6251ZM6.48151 11.6251C6.48184 11.4991 6.52747 11.3774 6.61009 11.2823C6.69271 11.1871 6.80679 11.1249 6.93151 11.1069L7.00651 11.1024C7.1361 11.1072 7.25934 11.1598 7.35246 11.25C7.44558 11.3403 7.50201 11.4618 7.51086 11.5912C7.51971 11.7206 7.48035 11.8486 7.40039 11.9507C7.32042 12.0528 7.20549 12.1217 7.07776 12.1441L7.00651 12.1486C6.86805 12.1478 6.73551 12.0924 6.63774 11.9943C6.53998 11.8963 6.4849 11.7636 6.48451 11.6251H6.48151ZM3.40651 11.6251C3.40684 11.4991 3.45248 11.3774 3.53509 11.2823C3.61771 11.1871 3.73179 11.1249 3.85651 11.1069L3.93151 11.1024C4.06034 11.1084 4.18243 11.1617 4.2745 11.252C4.36657 11.3423 4.42218 11.4634 4.43071 11.5921C4.43924 11.7207 4.4001 11.8481 4.32075 11.9498C4.24141 12.0514 4.12741 12.1204 4.00051 12.1434L3.92551 12.1479C3.78757 12.1465 3.65572 12.0909 3.55846 11.993C3.4612 11.8952 3.40634 11.7631 3.40576 11.6251H3.40651ZM9.55651 8.91386C9.55684 8.78785 9.60248 8.66616 9.68509 8.57102C9.76771 8.47587 9.88179 8.41361 10.0065 8.39561L10.0815 8.39111C10.2103 8.39717 10.3324 8.45043 10.4245 8.54075C10.5166 8.63107 10.5722 8.75212 10.5807 8.88081C10.5892 9.0095 10.5501 9.13683 10.4708 9.23851C10.3914 9.34019 10.2774 9.4091 10.1505 9.43211L10.08 9.43661C9.94142 9.43622 9.80861 9.38104 9.71054 9.28311C9.61247 9.18518 9.5571 9.05245 9.55651 8.91386ZM6.48151 8.91386C6.48184 8.78785 6.52747 8.66616 6.61009 8.57102C6.69271 8.47587 6.80679 8.41361 6.93151 8.39561L7.00651 8.39111C7.1361 8.39591 7.25934 8.4485 7.35246 8.53876C7.44558 8.62902 7.50201 8.75054 7.51086 8.87993C7.51971 9.00931 7.48035 9.13739 7.40039 9.23948C7.32042 9.34158 7.20549 9.41046 7.07776 9.43286L7.00651 9.43736C6.86805 9.43657 6.73551 9.38111 6.63774 9.28307C6.53998 9.18502 6.4849 9.05232 6.48451 8.91386H6.48151ZM3.40651 8.91386C3.40684 8.78785 3.45248 8.66616 3.53509 8.57102C3.61771 8.47587 3.73179 8.41361 3.85651 8.39561L3.93151 8.39111C4.06034 8.39717 4.18243 8.45043 4.2745 8.54075C4.36657 8.63107 4.42218 8.75212 4.43071 8.88081C4.43924 9.0095 4.4001 9.13683 4.32075 9.23851C4.24141 9.34019 4.12741 9.4091 4.00051 9.43211L3.92551 9.43661C3.78757 9.43523 3.65572 9.37962 3.55846 9.2818C3.4612 9.18398 3.40634 9.0518 3.40576 8.91386H3.40651Z" fill="#F13AB1"/>
</svg>
