<svg width="22" height="23" viewBox="0 0 22 23" fill="none" xmlns="http://www.w3.org/2000/svg">
<path d="M16.5329 20.43C16.5327 20.1035 16.6284 19.7842 16.8081 19.5126C16.9878 19.241 17.2432 19.0293 17.5422 18.9042C17.8411 18.7791 18.1701 18.7462 18.4876 18.8098C18.805 18.8734 19.0967 19.0305 19.3256 19.2613C19.5545 19.4921 19.7104 19.7862 19.7737 20.1065C19.8369 20.4267 19.8045 20.7586 19.6807 21.0603C19.5569 21.362 19.3472 21.6199 19.0781 21.8013C18.809 21.9827 18.4927 22.0796 18.169 22.0796C17.7354 22.0793 17.3195 21.9054 17.0128 21.5962C16.7061 21.2869 16.5335 20.8675 16.5329 20.43ZM4.3822 20.43C4.3822 20.1037 4.47809 19.7848 4.65776 19.5135C4.83742 19.2422 5.09278 19.0308 5.39155 18.906C5.69032 18.7811 6.01908 18.7484 6.33625 18.8121C6.65342 18.8757 6.94476 19.0328 7.17343 19.2635C7.4021 19.4942 7.55783 19.7882 7.62091 20.1082C7.684 20.4282 7.65162 20.7598 7.52787 21.0613C7.40412 21.3627 7.19454 21.6203 6.92566 21.8016C6.65677 21.9828 6.34065 22.0796 6.01726 22.0796C5.58371 22.0793 5.16799 21.9054 4.86141 21.5961C4.55484 21.2868 4.38248 20.8674 4.3822 20.43ZM6.19762 17.0523C5.53785 17.049 4.90087 16.8084 4.40108 16.3739C3.90128 15.9394 3.57141 15.3393 3.47071 14.6814L3.45019 14.5028L2.4631 2.6265L0.832353 2.34757C0.639466 2.31353 0.465266 2.21033 0.341831 2.05697C0.218396 1.9036 0.15404 1.71041 0.160614 1.51297L0.171414 1.40401C0.203357 1.21361 0.301188 1.04081 0.447515 0.916323C0.593842 0.791837 0.779182 0.723735 0.970588 0.724123H0.999747L1.10774 0.735018L3.35407 1.12726C3.51005 1.15478 3.6546 1.22789 3.76978 1.33751C3.88497 1.44714 3.96573 1.58846 4.00205 1.74396L4.02149 1.8649L4.27528 4.91568H19.5028C19.8132 4.91418 20.1206 4.97793 20.4052 5.10286C20.6899 5.2278 20.9457 5.41118 21.1562 5.64133C21.3667 5.87064 21.5283 6.14101 21.6312 6.43578C21.7341 6.73055 21.7761 7.04346 21.7545 7.35521L21.7372 7.51974L20.7123 14.6705C20.6197 15.3011 20.316 15.8807 19.8518 16.3132C19.3876 16.7456 18.7908 17.0049 18.1604 17.048L17.9833 17.0534L6.19762 17.0523ZM5.06474 14.3666C5.08705 14.6314 5.19965 14.8803 5.38336 15.0708C5.56707 15.2613 5.81055 15.3817 6.07234 15.4115L6.19762 15.418H17.98C18.2316 15.4178 18.476 15.3336 18.6751 15.1785C18.8742 15.0233 19.0168 14.806 19.0805 14.5605L19.1054 14.433L20.1313 7.28766C20.1551 7.11882 20.1117 6.94735 20.0105 6.81075C19.9093 6.67416 19.7586 6.58355 19.5913 6.55874L19.4963 6.55111H4.41352L5.06474 14.3666Z" fill="white"/>
<path d="M12.0938 8.02441V13.3582" stroke="white" stroke-width="0.9" stroke-miterlimit="10" stroke-linecap="round" stroke-linejoin="round"/>
<path d="M14.741 10.6914H9.44922" stroke="white" stroke-width="0.9" stroke-miterlimit="10" stroke-linecap="round" stroke-linejoin="round"/>
</svg>
