<svg width="20" height="20" viewBox="0 0 20 20" fill="none" xmlns="http://www.w3.org/2000/svg">
<path d="M5.31792 18.848L5.27192 18.832C5.26942 18.831 5.2672 18.8293 5.26546 18.8272C5.26372 18.8251 5.26251 18.8227 5.26192 18.82L4.57992 18.433C4.49247 18.3979 4.39917 18.3796 4.30492 18.379C4.26724 18.3785 4.22963 18.3825 4.19292 18.391C3.48337 18.6461 2.75822 18.8555 2.02192 19.018L1.88692 19.034H1.84592C1.68169 19.0435 1.5174 19.0165 1.36477 18.9552C1.21213 18.8938 1.07492 18.7995 0.962925 18.679C0.754834 18.4188 0.648238 18.0919 0.662925 17.759L0.682925 17.595C0.862519 16.8483 1.08863 16.1135 1.35992 15.395C1.39883 15.2612 1.38338 15.1175 1.31692 14.995L1.13292 14.637C0.335685 13.1107 -0.0541051 11.4044 0.00126883 9.68327C0.0566428 7.96215 0.555306 6.28446 1.44901 4.81252C2.34271 3.34057 3.6012 2.12422 5.10271 1.28113C6.60422 0.438047 8.29792 -0.00322322 10.0199 1.77245e-05H10.0589C11.5729 0.012268 13.0643 0.368132 14.4207 1.04077C15.7771 1.71341 16.9631 2.68526 17.8892 3.88303C18.8153 5.0808 19.4573 6.47322 19.7668 7.95527C20.0763 9.43731 20.0453 10.9703 19.676 12.4386C19.3068 13.9069 18.6089 15.2722 17.6351 16.4315C16.6614 17.5908 15.437 18.5139 14.0545 19.1311C12.672 19.7483 11.1674 20.0435 9.65416 19.9944C8.14093 19.9454 6.65858 19.5534 5.31892 18.848H5.31792ZM5.14692 17.16C5.23892 17.204 5.35593 17.267 5.51692 17.36L5.93892 17.603H5.94492L6.23192 17.749C7.71456 18.4645 9.37088 18.7411 11.0056 18.5462C12.6402 18.3513 14.1851 17.6931 15.4579 16.649L15.6779 16.462C16.9864 15.3096 17.9139 13.7869 18.3377 12.0956C18.7615 10.4043 18.6616 8.62421 18.0512 6.99097C17.4408 5.35773 16.3487 3.94841 14.9195 2.94965C13.4903 1.95089 11.7915 1.4098 10.0479 1.39802H9.76692C8.30674 1.43654 6.88042 1.84636 5.62248 2.58881C4.36455 3.33126 3.31645 4.38189 2.57703 5.64161C1.83761 6.90133 1.43123 8.32862 1.39622 9.7889C1.36121 11.2492 1.69872 12.6943 2.37692 13.988L2.55792 14.341C2.67759 14.5701 2.75037 14.8208 2.772 15.0783C2.79364 15.3359 2.76369 15.5952 2.68392 15.841C2.42822 16.5206 2.21449 17.2152 2.04392 17.921L2.13792 17.553L2.53793 17.453C2.82293 17.374 3.09092 17.293 3.35792 17.205L3.77592 17.061C3.95219 17.0126 4.13414 16.9881 4.31692 16.988C4.6021 16.9903 4.88408 17.0484 5.14692 17.159V17.16ZM13.3469 10C13.3469 9.77435 13.4138 9.55375 13.5392 9.36611C13.6646 9.17848 13.8428 9.03223 14.0513 8.94587C14.2598 8.85951 14.4892 8.83692 14.7105 8.88094C14.9319 8.92497 15.1352 9.03364 15.2947 9.19321C15.4543 9.35278 15.563 9.55609 15.607 9.77742C15.651 9.99875 15.6284 10.2282 15.5421 10.4367C15.4557 10.6452 15.3095 10.8233 15.1218 10.9487C14.9342 11.0741 14.7136 11.141 14.4879 11.141C14.1857 11.1405 13.896 11.02 13.6824 10.8061C13.4689 10.5922 13.3489 10.3023 13.3489 10H13.3469ZM8.91192 10C8.91192 9.77435 8.97884 9.55375 9.10422 9.36611C9.22959 9.17848 9.40779 9.03223 9.61628 8.94587C9.82477 8.85951 10.0542 8.83692 10.2755 8.88094C10.4969 8.92497 10.7002 9.03364 10.8597 9.19321C11.0193 9.35278 11.128 9.55609 11.172 9.77742C11.216 9.99875 11.1934 10.2282 11.1071 10.4367C11.0207 10.6452 10.8745 10.8233 10.6868 10.9487C10.4992 11.0741 10.2786 11.141 10.0529 11.141C9.75031 11.141 9.46009 11.0208 9.24612 10.8068C9.03214 10.5928 8.91192 10.3026 8.91192 10ZM4.47492 10C4.47492 9.77435 4.54184 9.55375 4.66722 9.36611C4.79259 9.17848 4.97079 9.03223 5.17928 8.94587C5.38777 8.85951 5.61719 8.83692 5.83852 8.88094C6.05986 8.92497 6.26316 9.03364 6.42273 9.19321C6.5823 9.35278 6.69097 9.55609 6.735 9.77742C6.77903 9.99875 6.75643 10.2282 6.67007 10.4367C6.58371 10.6452 6.43747 10.8233 6.24983 10.9487C6.06219 11.0741 5.84159 11.141 5.61592 11.141C5.31331 11.141 5.0231 11.0208 4.80912 10.8068C4.59514 10.5928 4.47492 10.3026 4.47492 10Z" fill="black"/>
</svg>
