<svg width="21" height="21" viewBox="0 0 21 21" fill="none" xmlns="http://www.w3.org/2000/svg">
<path d="M8.07633 20.125C7.89832 20.1245 7.72776 20.0536 7.60197 19.9276C7.47619 19.8017 7.40543 19.631 7.4052 19.453V12.425L1.40533 5.80912C1.10228 5.47394 0.917815 5.04844 0.880327 4.59812L0.875077 4.42837V2.905C0.870409 2.3723 1.07714 1.85947 1.44996 1.47895C1.82278 1.09842 2.33126 0.881233 2.86395 0.875H18.1371C18.6696 0.881463 19.1779 1.09875 19.5505 1.47925C19.9231 1.85975 20.1297 2.37245 20.1251 2.905V4.3925C20.1254 4.9317 19.9147 5.44961 19.538 5.83538L13.0245 12.4381V17.4388C13.0246 17.5498 12.9971 17.6592 12.9444 17.757C12.8917 17.8547 12.8155 17.9378 12.7226 17.9987L12.6351 18.046L8.35895 20.0585C8.27075 20.1011 8.17427 20.1238 8.07633 20.125ZM2.86395 2.21812C2.68725 2.22407 2.52009 2.29977 2.39907 2.42866C2.27804 2.55756 2.21301 2.72915 2.2182 2.90588V4.42837C2.21698 4.60478 2.28192 4.77524 2.4002 4.90613L8.57508 11.7145C8.68697 11.837 8.74935 11.9966 8.75008 12.1625V18.3907L11.6831 17.0109V12.1625C11.6827 12.0222 11.7265 11.8854 11.8082 11.7714L11.8756 11.6909L18.5825 4.8895C18.7118 4.7558 18.7837 4.57679 18.7828 4.39075V2.905C18.7883 2.72835 18.7234 2.55676 18.6025 2.42784C18.4817 2.29892 18.3146 2.22319 18.138 2.21725L2.86395 2.21812Z" fill="black"/>
</svg>
