<svg width="20" height="19" viewBox="0 0 20 19" fill="none" xmlns="http://www.w3.org/2000/svg">
<path d="M20 8.41315C19.9994 7.90106 19.7884 7.41011 19.4135 7.048C19.0386 6.68589 18.5302 6.48219 18 6.48156H14.1182C14.5027 5.3548 14.6667 3.85975 14.6667 3.21889V2.57546C14.6658 1.89266 14.3846 1.23806 13.8847 0.755249C13.3848 0.272437 12.707 0.000829226 12 0H11.3333C11.1847 1.57536e-05 11.0403 0.0480121 10.9231 0.136362C10.806 0.224712 10.7227 0.348346 10.6867 0.48762L10.3236 1.89081C9.81467 3.85589 8.19911 6.02399 6.52711 6.41804C6.37976 6.0574 6.1236 5.74786 5.79185 5.52957C5.46011 5.31127 5.06809 5.1943 4.66667 5.19383H0.666667C0.489874 5.19389 0.320339 5.26175 0.195327 5.38248C0.0703158 5.50322 5.89015e-05 5.66695 0 5.8377V17.4272C5.89015e-05 17.598 0.0703158 17.7617 0.195327 17.8825C0.320339 18.0032 0.489874 18.0711 0.666667 18.0711H4.66667C5.04449 18.0708 5.41452 17.9673 5.73398 17.7724C6.05345 17.5776 6.30931 17.2994 6.472 16.9701L8.76267 17.7075C9.51038 17.9486 10.2935 18.0714 11.0818 18.0711H16.6667C16.6667 18.0711 18.1808 18.2209 18.5524 16.7821C18.5524 16.7821 19.9953 8.60365 19.987 8.62275C19.9953 8.55317 19.9996 8.4832 20 8.41315ZM5.33333 16.1395C5.33312 16.3102 5.26282 16.4739 5.13784 16.5946C5.01286 16.7153 4.84341 16.7832 4.66667 16.7834H1.33333V6.48156H4.66667C4.84341 6.48177 5.01286 6.54967 5.13784 6.67037C5.26282 6.79108 5.33312 6.95473 5.33333 7.12543V16.1395Z" fill="#F13AB1"/>
</svg>
