<svg width="15" height="17" viewBox="0 0 15 17" fill="none" xmlns="http://www.w3.org/2000/svg">
<path d="M6.71811 16.1654L6.67061 16.1274L6.34366 15.9073C4.98473 14.9706 3.77468 13.8344 2.75424 12.5372L2.50407 12.2102C1.43126 10.8054 0.824754 9.10026 0.769531 7.33355L0.769531 7.10792C0.825013 5.35967 1.5581 3.70148 2.81384 2.48386C4.06957 1.26624 5.74956 0.584594 7.4987 0.583008L7.52166 0.583008H7.72432C9.47582 0.644932 11.1344 1.38648 12.3484 2.65048C13.5625 3.91448 14.2366 5.60156 14.2279 7.35413V7.4333C14.1883 9.5233 13.1694 11.6838 11.2829 13.6811C10.3919 14.6087 9.39704 15.4305 8.31807 16.1306L8.27849 16.163C8.05106 16.3265 7.77802 16.4145 7.49791 16.4145C7.21779 16.4145 6.94475 16.3265 6.71732 16.163L6.71811 16.1654ZM7.3277 1.78713C5.89248 1.83411 4.53152 2.43636 3.5316 3.467C2.53168 4.49764 1.97086 5.87619 1.96732 7.31218L1.98236 7.5948C2.08569 9.00819 2.59969 10.3606 3.4612 11.4858C4.52971 12.9187 5.84295 14.1515 7.34036 15.1275L7.40528 15.1766C7.43138 15.1994 7.46485 15.2119 7.49949 15.2119C7.53413 15.2119 7.5676 15.1994 7.5937 15.1766L7.66099 15.1259C8.66418 14.4771 9.58916 13.7147 10.4176 12.8538C12.0927 11.0805 12.996 9.20268 13.0301 7.42459V7.16176C12.9872 5.72635 12.3888 4.36362 11.361 3.36073C10.3331 2.35784 8.95611 1.79312 7.52007 1.78555L7.3277 1.78713ZM4.93449 7.43013C4.93652 6.92361 5.08857 6.42905 5.37144 6.00887C5.65431 5.58869 6.05532 5.26174 6.52386 5.06927C6.99239 4.87681 7.50744 4.82746 8.00399 4.92747C8.50054 5.02747 8.95634 5.27234 9.31384 5.63117C9.67135 5.99 9.91453 6.4467 10.0127 6.94361C10.1109 7.44053 10.0596 7.9554 9.86542 8.42322C9.67122 8.89103 9.34279 9.29083 8.92157 9.57215C8.50034 9.85346 8.00522 10.0037 7.4987 10.0038C6.8175 10.0022 6.16482 9.73016 5.68402 9.24759C5.20323 8.76502 4.93365 8.11134 4.93449 7.43013ZM6.13228 7.43013C6.13322 7.69999 6.21409 7.96352 6.36468 8.18745C6.51527 8.41139 6.72883 8.58568 6.9784 8.68834C7.22797 8.791 7.50236 8.81741 7.76693 8.76425C8.03151 8.71108 8.27439 8.58072 8.46494 8.38963C8.65548 8.19853 8.78513 7.95527 8.83753 7.69055C8.88993 7.42582 8.86272 7.15151 8.75935 6.90224C8.65597 6.65297 8.48105 6.43991 8.25669 6.28997C8.03232 6.14002 7.76856 6.05992 7.4987 6.05976C7.13587 6.0606 6.78821 6.20537 6.53202 6.4623C6.27584 6.71923 6.13207 7.06731 6.13228 7.43013Z" fill="#F13AB1"/>
</svg>
