<svg width="20" height="20" viewBox="0 0 20 20" fill="none" xmlns="http://www.w3.org/2000/svg">
<path d="M13.1746 19.749C12.8711 19.7505 12.5719 19.6785 12.3023 19.5392C12.0327 19.3999 11.8009 19.1974 11.6266 18.949L11.5386 18.816L7.63858 12.361L1.16758 8.38102C0.861329 8.19196 0.613944 7.92115 0.453282 7.59909C0.292621 7.27703 0.225065 6.91651 0.258221 6.55814C0.291377 6.19976 0.423929 5.85775 0.64095 5.57064C0.85797 5.28352 1.15084 5.06269 1.48658 4.93302L1.63758 4.88402L17.2936 0.327023C17.4697 0.27566 17.6521 0.249401 17.8356 0.249023C18.1225 0.251625 18.4053 0.318183 18.6633 0.443852C18.9213 0.569522 19.148 0.75114 19.3269 0.975484C19.5059 1.19983 19.6325 1.46125 19.6977 1.74072C19.7628 2.02019 19.7649 2.31068 19.7036 2.59102L19.6676 2.73102L15.0226 18.371C14.9058 18.7701 14.6624 19.1204 14.329 19.369C13.9956 19.6176 13.5904 19.751 13.1746 19.749ZM13.8556 5.37002C14.0153 5.36937 14.171 5.42022 14.2996 5.51502L14.3846 5.58702C14.5111 5.71416 14.5883 5.8822 14.6022 6.06104C14.6161 6.23988 14.5659 6.41783 14.4606 6.56302L14.3886 6.64802L9.13458 11.936L12.8226 18.049C12.8588 18.1118 12.911 18.1638 12.9739 18.1998C13.0368 18.2358 13.1081 18.2545 13.1806 18.254C13.2579 18.2544 13.3339 18.2333 13.3999 18.1931C13.466 18.1528 13.5195 18.095 13.5546 18.026L13.5856 17.95L18.2296 2.30502C18.2493 2.24064 18.2537 2.17251 18.2422 2.10614C18.2307 2.03978 18.2038 1.97705 18.1636 1.92302C18.1248 1.87024 18.0742 1.82722 18.0159 1.79736C17.9576 1.76751 17.8931 1.75164 17.8276 1.75102H17.7846L17.7116 1.76502L2.05558 6.32302C1.98302 6.34374 1.9174 6.38366 1.86566 6.43858C1.81391 6.49349 1.77795 6.56136 1.76158 6.63502C1.74357 6.70961 1.74575 6.78765 1.76789 6.86111C1.79004 6.93458 1.83135 7.00082 1.88758 7.05302L1.95358 7.10202L8.07758 10.871L13.3226 5.59202C13.3923 5.52169 13.4754 5.46592 13.5669 5.42798C13.6584 5.39004 13.7565 5.37068 13.8556 5.37102V5.37002Z" fill="black"/>
</svg>
