<svg width="22" height="22" viewBox="0 0 22 22" fill="none" xmlns="http://www.w3.org/2000/svg">
<path d="M5.33114 21.2921H5.32464C5.08727 21.2927 4.85261 21.2417 4.63686 21.1428C4.4211 21.0438 4.22937 20.8992 4.07489 20.719C3.92041 20.5388 3.80687 20.3272 3.74208 20.0989C3.6773 19.8705 3.66282 19.6308 3.69964 19.3963L4.66489 13.9905C4.66524 13.9845 4.66436 13.9786 4.66231 13.973C4.66026 13.9674 4.65708 13.9623 4.65297 13.958L0.644635 10.1013C0.494401 9.95386 0.374914 9.77807 0.293093 9.58411C0.211271 9.39016 0.168742 9.1819 0.167969 8.9714C0.168217 8.7496 0.212489 8.53006 0.298218 8.3255C0.383947 8.12094 0.509427 7.93543 0.667385 7.77973C0.919847 7.55278 1.23175 7.40247 1.56655 7.3464L7.03739 6.55881C7.05905 6.55881 7.08072 6.54906 7.08072 6.52523L9.52797 1.61881C9.66372 1.34556 9.87304 1.11563 10.1324 0.954887C10.3917 0.794147 10.6908 0.708984 10.9959 0.708984C11.301 0.708984 11.6001 0.794147 11.8594 0.954887C12.1187 1.11563 12.3281 1.34556 12.4638 1.61881L14.9132 6.53715C14.923 6.5469 14.9349 6.55881 14.9457 6.55881L20.4296 7.34965C20.8593 7.40918 21.2483 7.63524 21.5129 7.97906C21.7472 8.2953 21.8588 8.68585 21.827 9.07817C21.7951 9.47048 21.6219 9.83789 21.3396 10.1121L17.3648 13.958C17.3615 13.9609 17.3589 13.9647 17.3572 13.9688V13.9753L18.3095 19.4028C18.3702 19.8273 18.2626 20.2586 18.0096 20.6048C17.7565 20.9509 17.3782 21.1844 16.9553 21.2553C16.8703 21.2678 16.7845 21.2743 16.6986 21.2748H16.6996C16.4323 21.2748 16.1692 21.2086 15.9337 21.082L11.036 18.5253C11.0204 18.5247 11.005 18.5284 10.9916 18.5361L6.0613 21.1188C5.83477 21.2328 5.58471 21.2921 5.33114 21.2921ZM10.9807 2.29048L10.9699 2.29806C10.9605 2.30368 10.9529 2.31197 10.9482 2.32189L8.4988 7.2294C8.3824 7.46668 8.21041 7.67234 7.99747 7.82888C7.78452 7.98543 7.53692 8.08824 7.27572 8.12856L1.82655 8.90965L1.76047 8.93131C1.75247 8.94466 1.74905 8.96026 1.75072 8.97573L5.75905 12.8216C5.94684 13.0066 6.08724 13.2341 6.16833 13.485C6.24942 13.7358 6.26882 14.0025 6.22489 14.2624L5.27155 19.6574V19.6801C5.27459 19.6904 5.28087 19.6995 5.28945 19.7059C5.29804 19.7124 5.30848 19.7159 5.31922 19.7159H5.33655L10.243 17.143C10.4832 17.0142 10.7515 16.9465 11.0241 16.9458H11.0295C11.2916 16.9468 11.5497 17.0103 11.7824 17.1311L16.6574 19.678H16.6671C16.6769 19.6835 16.6875 19.6872 16.6986 19.6888H16.7343L16.756 19.6682L15.8016 14.2721C15.7493 14.0106 15.7647 13.74 15.8464 13.4862C15.9282 13.2323 16.0734 13.0035 16.2685 12.8216L20.2443 8.96598L20.2551 8.94106L20.2443 8.93131H20.2302C20.2213 8.92759 20.2117 8.92575 20.2021 8.9259L14.7171 8.12856C14.4558 8.08877 14.2079 7.98616 13.9949 7.82956C13.7819 7.67295 13.61 7.46701 13.4941 7.2294L11.0457 2.33381C11.046 2.32929 11.0454 2.32475 11.0439 2.32047C11.0424 2.31618 11.0401 2.31225 11.0371 2.30889C11.0298 2.30277 11.0205 2.29967 11.0111 2.30023L11.0013 2.29048H10.9807Z" fill="white"/>
</svg>
