<svg width="16" height="16" viewBox="0 0 16 16" fill="none" xmlns="http://www.w3.org/2000/svg">
<path d="M14.9375 8.00098C14.9375 9.37309 14.5306 10.7144 13.7683 11.8552C13.006 12.9961 11.9225 13.8853 10.6549 14.4104C9.38721 14.9355 7.99231 15.0729 6.64656 14.8052C5.30082 14.5375 4.06468 13.8768 3.09445 12.9065C2.12422 11.9363 1.46349 10.7002 1.19581 9.35442C0.92812 8.00867 1.06551 6.61377 1.59059 5.34611C2.11567 4.07845 3.00487 2.99496 4.14573 2.23266C5.2866 1.47035 6.62789 1.06348 8 1.06348C9.83994 1.06348 11.6045 1.79439 12.9056 3.09542C14.2066 4.39646 14.9375 6.16104 14.9375 8.00098V8.00098Z" stroke="#F13AB1" stroke-width="1.5" stroke-miterlimit="10" stroke-linecap="round" stroke-linejoin="round"/>
<path d="M10.5736 10.2103L7.74609 8.5205V4.88525" stroke="#F13AB1" stroke-width="1.5" stroke-miterlimit="10" stroke-linecap="round" stroke-linejoin="round"/>
</svg>
